<svg xmlns="http://www.w3.org/2000/svg" width="40" height="40" fill="none" viewBox="0 0 40 40"><path fill="#246FFF" fill-rule="evenodd" d="M22.6013 2.09252C23.4338 2.35496 24 3.12705 24 3.99999V14L32 14C32.7458 14 33.4296 14.4149 33.774 15.0764C34.1184 15.7378 34.0661 16.536 33.6385 17.1469L19.6385 37.1469C19.1379 37.8621 18.2313 38.1699 17.3987 37.9075C16.5662 37.645 16 36.8729 16 36L16 26H8.00001C7.25425 26 6.57044 25.5851 6.22605 24.9236C5.88165 24.2621 5.93388 23.464 6.36154 22.8531L20.3615 2.85307C20.8621 2.13793 21.7687 1.83008 22.6013 2.09252Z" clip-rule="evenodd"/></svg>