<svg xmlns="http://www.w3.org/2000/svg" width="232" height="242" fill="none" viewBox="0 0 232 242"><path stroke="#246FFF" stroke-linecap="round" stroke-linejoin="round" stroke-width="18" d="M9.46002 116.16C9.74002 130.01 17.98 143.67 31.37 148.38C40.1 151.45 48.99 150.97 54.71 143.38C64.89 129.86 67.27 109.7 70.4 93.5999C74.29 73.5999 77.16 52.9399 84.11 33.6799C86.36 27.4499 89.02 21.0399 93.45 16.0199C98.2 10.6499 106.78 6.87992 112.94 12.2299C114.597 13.7409 115.99 15.5188 117.06 17.4899C120.16 22.9199 121.85 29.1399 123.23 35.1899C125.052 43.4882 126.437 51.8764 127.38 60.3199C128.6 70.3199 129.52 80.3199 130.38 90.3699C131.31 101.18 132.15 112 133.1 122.81C134.05 133.62 135.1 144.36 136.44 155.1C137.68 165.03 139.17 174.94 141.26 184.73C142.911 193.078 145.318 201.258 148.45 209.17C150.94 215.23 154.14 221.28 158.88 225.89C162.739 229.809 167.936 232.123 173.43 232.37H174.11C232.22 232.37 193.48 125.83 222.54 125.83"/><path fill="#246FFF" d="M132 146C145.807 146 157 134.807 157 121C157 107.193 145.807 96 132 96C118.193 96 107 107.193 107 121C107 134.807 118.193 146 132 146Z"/></svg>