<svg xmlns="http://www.w3.org/2000/svg" width="206" height="194" fill="none" viewBox="0 0 206 194"><path fill="#246FFF" d="M58.16 193.48C56.992 193.484 55.8348 193.256 54.7554 192.81C53.6761 192.364 52.696 191.708 51.8719 190.88C51.0479 190.052 50.3962 189.069 49.9548 187.988C49.5133 186.906 49.2907 185.748 49.3 184.58V184.43C49.21 182.81 49.81 181.26 50.89 179.14L120.12 43.0001C126.373 30.7201 132.623 18.4534 138.87 6.20006C140.82 2.40006 143.52 0.560059 147.15 0.560059C147.641 0.560742 148.132 0.590792 148.62 0.650055C149.902 0.842826 151.126 1.31383 152.206 2.02998C153.286 2.74614 154.197 3.69007 154.873 4.79553C155.55 5.90099 155.976 7.14116 156.122 8.42897C156.269 9.71678 156.131 11.021 155.72 12.2501C154.995 14.1456 154.13 15.9841 153.13 17.7501C152.77 18.4301 152.4 19.1201 152.05 19.8101C140.683 42.2034 129.287 64.6001 117.86 87.0001L66.7 187.67C64.84 191.34 62.48 193.12 59.05 193.44C58.75 193.44 58.45 193.44 58.16 193.44V193.48ZM162.28 180C154.554 180.003 146.981 177.852 140.41 173.789C133.839 169.726 128.53 163.913 125.08 157C122.414 151.895 120.818 146.3 120.39 140.557C119.962 134.814 120.711 129.044 122.59 123.6C124.559 118.07 127.638 113 131.635 108.701C135.633 104.402 140.467 100.965 145.84 98.6001C151.017 96.2969 156.624 95.1176 162.29 95.1401C174.02 95.1401 185.57 99.9901 193.17 108.14C199.525 114.716 203.574 123.176 204.71 132.25C204.729 132.783 204.855 133.307 205.08 133.79V142.12C204.571 143.239 204.273 144.443 204.2 145.67C204.17 146.066 204.116 146.46 204.04 146.85C199.43 165.22 185.73 177.47 167.37 179.64C165.682 179.86 163.982 179.98 162.28 180ZM162.57 113.19C159.321 113.132 156.093 113.723 153.075 114.928C150.057 116.133 147.31 117.928 144.995 120.207C142.679 122.487 140.841 125.206 139.589 128.205C138.338 131.203 137.697 134.422 137.704 137.671C137.711 140.921 138.367 144.136 139.632 147.129C140.897 150.122 142.747 152.833 145.073 155.102C147.399 157.371 150.154 159.154 153.177 160.345C156.201 161.537 159.431 162.113 162.68 162.04C169.131 161.953 175.293 159.356 179.862 154.801C184.43 150.246 187.044 144.09 187.15 137.64C187.105 131.169 184.515 124.976 179.94 120.401C175.364 115.825 169.171 113.235 162.7 113.19H162.57ZM43.06 98.8901C19.41 98.4401 0.509999 79.2201 0.919999 56.0301C1.33 32.8401 20.09 14.0901 42.73 14.0901H43.55C67.5 14.5801 86.02 33.3901 85.7 56.9201C85.5526 68.1242 80.9926 78.8182 73.0097 86.6813C65.0268 94.5444 54.2651 98.9421 43.06 98.9201V98.8901ZM43.54 32.0401C37.0608 31.9724 30.82 34.4814 26.1907 39.0151C21.5614 43.5488 18.9226 49.7358 18.855 56.2151C18.7874 62.6943 21.2964 68.935 25.8301 73.5644C30.3638 78.1937 36.5508 80.8324 43.03 80.9001H43.46C56.46 80.9001 67.59 69.9001 67.79 56.8501C67.99 43.8001 57.12 32.2701 44 32.0001L43.54 32.0401Z"/></svg>